<mxfile host="app.diagrams.net" modified="2021-11-23T14:39:40.845Z" agent="5.0 (Windows NT 10.0; Win64; x64) AppleWebKit/537.36 (KHTML, like Gecko) Chrome/96.0.4664.45 Safari/537.36" etag="a4rmJIAFCzy-xHJ2pQhR" version="15.8.3" type="github">
  <diagram id="_1e6eq4gqQpixzHqWoPJ" name="Page-1">
    <mxGraphModel dx="1235" dy="412" grid="0" gridSize="10" guides="1" tooltips="1" connect="1" arrows="1" fold="1" page="1" pageScale="1" pageWidth="827" pageHeight="1169" math="0" shadow="0">
      <root>
        <mxCell id="0" />
        <mxCell id="1" parent="0" />
        <mxCell id="u-FrUHWEFDejLxlOJI8D-13" value="" style="edgeStyle=orthogonalEdgeStyle;rounded=0;orthogonalLoop=1;jettySize=auto;html=1;fontSize=18;" edge="1" parent="1" source="u-FrUHWEFDejLxlOJI8D-1" target="u-FrUHWEFDejLxlOJI8D-11">
          <mxGeometry relative="1" as="geometry" />
        </mxCell>
        <mxCell id="u-FrUHWEFDejLxlOJI8D-1" value="Biðja Notenda um aðgang&amp;nbsp;&lt;br&gt;(Starfsmaður / Yfirmaður)" style="rounded=1;whiteSpace=wrap;html=1;" vertex="1" parent="1">
          <mxGeometry x="265" y="210" width="210" height="90" as="geometry" />
        </mxCell>
        <mxCell id="u-FrUHWEFDejLxlOJI8D-2" value="" style="ellipse;html=1;shape=startState;fillColor=#000000;strokeColor=#ff0000;" vertex="1" parent="1">
          <mxGeometry x="355" y="120" width="30" height="30" as="geometry" />
        </mxCell>
        <mxCell id="u-FrUHWEFDejLxlOJI8D-3" value="" style="edgeStyle=orthogonalEdgeStyle;html=1;verticalAlign=bottom;endArrow=open;endSize=8;strokeColor=#ff0000;rounded=0;" edge="1" source="u-FrUHWEFDejLxlOJI8D-2" parent="1">
          <mxGeometry relative="1" as="geometry">
            <mxPoint x="370" y="210" as="targetPoint" />
          </mxGeometry>
        </mxCell>
        <mxCell id="u-FrUHWEFDejLxlOJI8D-4" value="Menu Display&lt;br&gt;(Employee)" style="rounded=1;whiteSpace=wrap;html=1;" vertex="1" parent="1">
          <mxGeometry x="47" y="416" width="210" height="90" as="geometry" />
        </mxCell>
        <mxCell id="u-FrUHWEFDejLxlOJI8D-8" value="&lt;b&gt;&lt;font style=&quot;font-size: 18px&quot;&gt;UI Layer&lt;/font&gt;&lt;/b&gt;" style="text;html=1;align=center;verticalAlign=middle;resizable=0;points=[];autosize=1;strokeColor=none;fillColor=none;" vertex="1" parent="1">
          <mxGeometry x="195" y="70" width="90" height="20" as="geometry" />
        </mxCell>
        <mxCell id="u-FrUHWEFDejLxlOJI8D-11" value="&lt;font style=&quot;font-size: 12px&quot;&gt;M/E&lt;/font&gt;" style="rhombus;whiteSpace=wrap;html=1;fontSize=18;" vertex="1" parent="1">
          <mxGeometry x="336" y="321" width="68" height="57" as="geometry" />
        </mxCell>
        <mxCell id="u-FrUHWEFDejLxlOJI8D-14" value="" style="endArrow=classic;html=1;rounded=0;fontSize=12;exitX=0.5;exitY=1;exitDx=0;exitDy=0;entryX=0.5;entryY=0;entryDx=0;entryDy=0;" edge="1" parent="1" source="u-FrUHWEFDejLxlOJI8D-11" target="u-FrUHWEFDejLxlOJI8D-4">
          <mxGeometry width="50" height="50" relative="1" as="geometry">
            <mxPoint x="393" y="469" as="sourcePoint" />
            <mxPoint x="443" y="419" as="targetPoint" />
            <Array as="points">
              <mxPoint x="152" y="378" />
            </Array>
          </mxGeometry>
        </mxCell>
        <mxCell id="u-FrUHWEFDejLxlOJI8D-15" value="Menu Display&lt;br&gt;(Manager)" style="rounded=1;whiteSpace=wrap;html=1;" vertex="1" parent="1">
          <mxGeometry x="504" y="416" width="210" height="90" as="geometry" />
        </mxCell>
        <mxCell id="u-FrUHWEFDejLxlOJI8D-16" value="" style="endArrow=classic;html=1;rounded=0;fontSize=12;entryX=0.5;entryY=0;entryDx=0;entryDy=0;exitX=0.5;exitY=1;exitDx=0;exitDy=0;" edge="1" parent="1" source="u-FrUHWEFDejLxlOJI8D-11" target="u-FrUHWEFDejLxlOJI8D-15">
          <mxGeometry width="50" height="50" relative="1" as="geometry">
            <mxPoint x="369" y="382" as="sourcePoint" />
            <mxPoint x="443" y="419" as="targetPoint" />
            <Array as="points">
              <mxPoint x="609" y="374" />
            </Array>
          </mxGeometry>
        </mxCell>
        <mxCell id="u-FrUHWEFDejLxlOJI8D-17" value="Verkbeiðnir" style="rounded=1;whiteSpace=wrap;html=1;fontSize=12;" vertex="1" parent="1">
          <mxGeometry x="-51" y="535" width="120" height="60" as="geometry" />
        </mxCell>
        <mxCell id="u-FrUHWEFDejLxlOJI8D-19" value="Listi fasteigna" style="rounded=1;whiteSpace=wrap;html=1;fontSize=12;" vertex="1" parent="1">
          <mxGeometry x="105" y="636" width="120" height="60" as="geometry" />
        </mxCell>
        <mxCell id="u-FrUHWEFDejLxlOJI8D-31" value="" style="edgeStyle=orthogonalEdgeStyle;rounded=0;orthogonalLoop=1;jettySize=auto;html=1;fontSize=12;" edge="1" parent="1" source="u-FrUHWEFDejLxlOJI8D-20" target="u-FrUHWEFDejLxlOJI8D-30">
          <mxGeometry relative="1" as="geometry" />
        </mxCell>
        <mxCell id="u-FrUHWEFDejLxlOJI8D-20" value="Verktakar" style="rounded=1;whiteSpace=wrap;html=1;fontSize=12;" vertex="1" parent="1">
          <mxGeometry x="235" y="537" width="120" height="60" as="geometry" />
        </mxCell>
        <mxCell id="u-FrUHWEFDejLxlOJI8D-21" value="Listi yfir verkbeiðnir&lt;br&gt;(hægt að leita upp verkbeiðni)" style="rounded=1;whiteSpace=wrap;html=1;fontSize=12;" vertex="1" parent="1">
          <mxGeometry x="-187" y="642" width="120" height="60" as="geometry" />
        </mxCell>
        <mxCell id="u-FrUHWEFDejLxlOJI8D-27" value="" style="edgeStyle=orthogonalEdgeStyle;rounded=0;orthogonalLoop=1;jettySize=auto;html=1;fontSize=12;" edge="1" parent="1" source="u-FrUHWEFDejLxlOJI8D-24" target="u-FrUHWEFDejLxlOJI8D-19">
          <mxGeometry relative="1" as="geometry" />
        </mxCell>
        <mxCell id="u-FrUHWEFDejLxlOJI8D-24" value="Fasteignir" style="rounded=1;whiteSpace=wrap;html=1;fontSize=12;" vertex="1" parent="1">
          <mxGeometry x="92" y="535" width="120" height="60" as="geometry" />
        </mxCell>
        <mxCell id="u-FrUHWEFDejLxlOJI8D-28" value="Skrá verkbeiðni" style="rounded=1;whiteSpace=wrap;html=1;fontSize=12;" vertex="1" parent="1">
          <mxGeometry x="-30" y="642" width="120" height="60" as="geometry" />
        </mxCell>
        <mxCell id="u-FrUHWEFDejLxlOJI8D-30" value="Sýnir upl. um verktaka" style="rounded=1;whiteSpace=wrap;html=1;fontSize=12;" vertex="1" parent="1">
          <mxGeometry x="264" y="629" width="120" height="60" as="geometry" />
        </mxCell>
        <mxCell id="u-FrUHWEFDejLxlOJI8D-35" value="" style="edgeStyle=orthogonalEdgeStyle;rounded=0;orthogonalLoop=1;jettySize=auto;html=1;fontSize=12;" edge="1" parent="1" source="u-FrUHWEFDejLxlOJI8D-32" target="u-FrUHWEFDejLxlOJI8D-28">
          <mxGeometry relative="1" as="geometry" />
        </mxCell>
        <mxCell id="u-FrUHWEFDejLxlOJI8D-36" value="" style="edgeStyle=orthogonalEdgeStyle;rounded=0;orthogonalLoop=1;jettySize=auto;html=1;fontSize=12;" edge="1" parent="1" source="u-FrUHWEFDejLxlOJI8D-32" target="u-FrUHWEFDejLxlOJI8D-21">
          <mxGeometry relative="1" as="geometry" />
        </mxCell>
        <mxCell id="u-FrUHWEFDejLxlOJI8D-32" value="" style="rhombus;whiteSpace=wrap;html=1;fontSize=12;" vertex="1" parent="1">
          <mxGeometry x="-59" y="608" width="19" height="21" as="geometry" />
        </mxCell>
        <mxCell id="u-FrUHWEFDejLxlOJI8D-34" value="" style="endArrow=classic;html=1;rounded=0;fontSize=12;exitX=0.5;exitY=1;exitDx=0;exitDy=0;entryX=0.5;entryY=0;entryDx=0;entryDy=0;" edge="1" parent="1" source="u-FrUHWEFDejLxlOJI8D-17" target="u-FrUHWEFDejLxlOJI8D-32">
          <mxGeometry width="50" height="50" relative="1" as="geometry">
            <mxPoint x="81" y="679" as="sourcePoint" />
            <mxPoint x="131" y="629" as="targetPoint" />
            <Array as="points">
              <mxPoint x="-49" y="595" />
            </Array>
          </mxGeometry>
        </mxCell>
        <mxCell id="u-FrUHWEFDejLxlOJI8D-38" value="Starfsmenn" style="rounded=1;whiteSpace=wrap;html=1;fontSize=12;" vertex="1" parent="1">
          <mxGeometry x="485" y="531" width="120" height="60" as="geometry" />
        </mxCell>
        <mxCell id="u-FrUHWEFDejLxlOJI8D-39" value="Fasteignir&lt;br&gt;" style="rounded=1;whiteSpace=wrap;html=1;fontSize=12;" vertex="1" parent="1">
          <mxGeometry x="662" y="531" width="120" height="60" as="geometry" />
        </mxCell>
        <mxCell id="u-FrUHWEFDejLxlOJI8D-40" value="Skýrslur" style="rounded=1;whiteSpace=wrap;html=1;fontSize=12;" vertex="1" parent="1">
          <mxGeometry x="834" y="531" width="120" height="60" as="geometry" />
        </mxCell>
        <mxCell id="u-FrUHWEFDejLxlOJI8D-41" value="Verktakar" style="rounded=1;whiteSpace=wrap;html=1;fontSize=12;" vertex="1" parent="1">
          <mxGeometry x="983" y="531" width="120" height="60" as="geometry" />
        </mxCell>
      </root>
    </mxGraphModel>
  </diagram>
</mxfile>
